<mxfile host="app.diagrams.net" modified="2024-03-27T10:37:09.631Z" agent="Mozilla/5.0 (Macintosh; Intel Mac OS X 10.15; rv:124.0) Gecko/20100101 Firefox/124.0" version="24.2.0" etag="Bc7pHXdJyLRYVGDJR0nI" type="github">
  <diagram name="Page-1" id="bgw6Ty6ryX-Bh5xOLWq1">
    <mxGraphModel>
      <root>
        <mxCell id="0" />
        <mxCell id="1" parent="0" />
      </root>
    </mxGraphModel>
  </diagram>
</mxfile>
